<svg width="423" height="567" viewBox="0 0 423 567" fill="none" xmlns="http://www.w3.org/2000/svg">
<g clip-path="url(#clip0_4_4)">
<path d="M0 122.332L255.332 566.122L699.122 310.79L443.79 -133L0 122.332Z" fill="#EDF6F9"/>
<path d="M99.2868 205.48C95.9765 207.385 66.6039 224.356 66.4618 224.347C66.4714 223.949 66.2599 223.48 66.1665 223.081L60.2623 197.839L51.918 158.231C51.1675 154.779 51.049 153.146 49.2894 150.099L37.3839 129.384C33.0547 120.964 35.9008 109.951 43.3896 104.237C48.2504 100.529 55.6784 98.9221 61.5851 100.91C63.1021 95.6946 65.626 91.776 70.0883 88.744C70.9434 88.2505 71.7897 87.7352 72.6879 87.3223C81.5061 83.269 91.9226 85.922 97.7628 93.5934C98.4158 94.4511 98.9286 95.4498 99.4661 96.3824L110.316 115.252C110.756 116.017 111.252 117.144 111.918 117.718L165.775 167.197L99.2868 205.48ZM76.7855 99.1676C72.464 102.125 72.0843 106.529 74.498 110.753L81.353 122.668C84.9486 128.946 77.5879 135.603 71.8579 131.008L71.5754 130.775C71.054 130.34 70.7381 129.753 70.4028 129.175L63.1993 116.641C62.9018 116.127 62.5906 115.511 62.1847 115.08C58.7507 111.431 52.8765 111.463 49.6045 115.343C46.4564 119.076 48.0146 122.668 50.0504 126.204L61.0402 145.292C61.4998 146.088 62.0908 146.928 62.2416 147.85L65.311 161.525L68.5794 178.038L74.5018 204.454C74.5786 204.752 74.7245 205.047 74.7287 205.356L90.5103 196.303L90.2871 181.12L89.2955 151.378C89.2735 150.694 89.2073 149.985 89.3859 149.317C90.5646 149.705 91.6414 150.479 92.7012 151.117L127.615 173.42C128.007 173.675 128.393 174.093 128.806 174.266L145.267 164.653C145.007 164.516 144.772 164.202 144.547 164.003L118.753 140.439L102.648 126.099C101.365 124.965 101.057 124.362 100.204 122.883L88.7651 102.998C88.1212 101.879 87.5509 100.878 86.6384 99.9491C84.0258 97.2896 79.8117 97.2024 76.7855 99.1676Z" fill="#006D77"/>
<path d="M186.441 22.4653C189.751 20.561 219.124 3.59019 219.267 3.5991C219.257 3.99704 219.468 4.46583 219.562 4.86395L225.466 30.1066L233.81 69.7145C234.56 73.167 234.679 74.8001 236.439 77.846L248.344 98.5614C252.673 106.981 249.827 117.995 242.338 123.708C237.478 127.416 230.05 129.024 224.143 127.036C222.625 132.251 220.102 136.17 215.64 139.202C214.785 139.695 213.938 140.211 213.04 140.624C204.222 144.676 193.805 142.024 187.965 134.352C187.312 133.495 186.8 132.496 186.262 131.563L175.412 112.693C174.972 111.928 174.476 110.801 173.81 110.228L119.953 60.7485L186.441 22.4653ZM208.943 128.778C213.265 125.821 213.644 121.417 211.23 117.193L204.375 105.277C200.78 98.9996 208.141 92.3428 213.87 96.9374L214.153 97.1704C214.674 97.6051 214.99 98.1925 215.325 98.7709L222.529 111.305C222.827 111.819 223.137 112.435 223.543 112.866C226.977 116.514 232.851 116.483 236.124 112.603C239.271 108.869 237.713 105.279 235.677 101.742L224.688 82.6532C224.228 81.8578 223.637 81.0179 223.486 80.0959L220.417 66.4206L217.149 49.908L211.226 23.4917C211.15 23.1934 211.003 22.8986 210.999 22.5904L195.217 31.6433L195.44 46.8259L196.433 76.5676C196.455 77.2513 196.521 77.9604 196.342 78.6282C195.163 78.2407 194.087 77.4667 193.027 76.8285L158.113 54.5251C157.721 54.2707 157.335 53.8536 156.921 53.6803L140.46 63.293C140.721 63.4302 140.956 63.7442 141.181 63.9432L166.975 87.5072L183.08 101.847C184.363 102.981 184.67 103.584 185.524 105.063L196.963 124.948C197.606 126.067 198.177 127.068 199.09 127.996C201.702 130.656 205.916 130.743 208.943 128.778Z" fill="#83C5BE"/>
<path d="M321.182 77.8143C317.872 79.7188 288.499 96.6898 288.356 96.6807C288.366 96.2828 288.155 95.8135 288.061 95.4154L282.157 70.173L273.813 30.5651C273.063 27.1126 272.944 25.4795 271.184 22.4336L259.279 1.7179C254.95 -6.70163 257.796 -17.7154 265.285 -23.4287C270.145 -27.1369 277.573 -28.7438 283.48 -26.7563C284.998 -31.9717 287.521 -35.8899 291.983 -38.922C292.838 -39.4153 293.685 -39.9309 294.583 -40.344C303.401 -44.3969 313.818 -41.7441 319.657 -34.0725C320.311 -33.2151 320.823 -32.2162 321.361 -31.2837L332.211 -12.414C332.651 -11.6488 333.147 -10.5216 333.813 -9.9484L387.67 39.5309L321.182 77.8143ZM298.681 -28.4985C294.359 -25.5412 293.979 -21.137 296.393 -16.9135L303.248 -4.99761C306.843 1.27999 299.483 7.93628 293.753 3.3422L293.47 3.10923C292.949 2.67446 292.633 2.08711 292.298 1.50867L285.094 -11.0254C284.797 -11.5388 284.486 -12.1552 284.08 -12.5864C280.646 -16.2349 274.772 -16.2036 271.499 -12.3229C268.351 -8.5897 269.91 -4.99869 271.946 -1.46222L282.935 17.6264C283.395 18.4218 283.986 19.2617 284.137 20.1838L287.206 33.859L290.474 50.3715L296.397 76.7877C296.473 77.0865 296.619 77.3808 296.624 77.6896L312.405 68.6368L312.182 53.4537L311.19 23.712C311.168 23.0283 311.103 22.3187 311.281 21.6514C312.46 22.0389 313.536 22.8129 314.596 23.4511L349.51 45.7543C349.902 46.0087 350.289 46.4264 350.702 46.5993L367.162 36.9871C366.902 36.8495 366.667 36.5358 366.442 36.3366L340.648 12.7723L324.543 -1.56699C323.26 -2.70105 322.952 -3.30394 322.099 -4.78322L310.661 -24.6684C310.017 -25.7877 309.446 -26.7881 308.534 -27.7172C305.921 -30.3764 301.707 -30.4636 298.681 -28.4985Z" fill="#006D77"/>
<path d="M408.336 -105.201C411.646 -107.105 441.019 -124.076 441.162 -124.067C441.152 -123.669 441.363 -123.2 441.457 -122.802L447.361 -97.5595L455.705 -57.9516C456.455 -54.4991 456.573 -52.8659 458.334 -49.8201L470.239 -29.1047C474.568 -20.6851 471.722 -9.67122 464.233 -3.95767C459.373 -0.249824 451.945 1.35761 446.038 -0.630254C444.52 4.58519 441.997 8.50346 437.535 11.5358C436.68 12.0288 435.833 12.5447 434.935 12.9579C426.117 17.0102 415.7 14.3575 409.86 6.68579C409.207 5.82852 408.695 4.82994 408.157 3.89692L397.307 -14.9726C396.867 -15.7377 396.371 -16.8649 395.705 -17.4381L341.848 -66.9176L408.336 -105.201ZM430.837 1.11209C435.159 -1.84524 435.539 -6.24913 433.125 -10.473L426.27 -22.3889C422.675 -28.6665 430.035 -35.3228 435.765 -30.7287L436.048 -30.4957C436.569 -30.061 436.885 -29.4736 437.22 -28.8952L444.424 -16.3611C444.722 -15.8472 445.032 -15.2311 445.438 -14.8001C448.872 -11.1516 454.746 -11.183 458.019 -15.0632C461.166 -18.7971 459.608 -22.3875 457.572 -25.9243L446.583 -45.0129C446.123 -45.8083 445.532 -46.6482 445.381 -47.5702L442.312 -61.2455L439.044 -77.758L433.121 -104.174C433.045 -104.473 432.898 -104.768 432.894 -105.076L417.113 -96.0233L417.335 -80.8402L418.328 -51.0985C418.35 -50.4148 418.415 -49.7052 418.237 -49.0379C417.058 -49.4254 415.982 -50.1994 414.922 -50.8376L380.008 -73.141C379.616 -73.3954 379.23 -73.8125 378.816 -73.9858L362.355 -64.3731C362.616 -64.2359 362.851 -63.9219 363.076 -63.7229L388.87 -40.1588L404.975 -25.8195C406.258 -24.6855 406.565 -24.0826 407.419 -22.6033L418.858 -2.7178C419.501 -1.59879 420.072 -0.598264 420.984 0.330804C423.597 2.98986 427.811 3.07705 430.837 1.11209Z" fill="#83C5BE"/>
<path d="M83.853 229.162C87.1633 227.258 116.536 210.287 116.678 210.296C116.669 210.694 116.88 211.163 116.974 211.561L122.878 236.804L131.221 276.411C131.972 279.864 132.091 281.497 133.85 284.543L145.756 305.258C150.085 313.678 147.239 324.692 139.75 330.405C134.889 334.114 127.462 335.721 121.555 333.733C120.038 338.948 117.514 342.867 113.052 345.899C112.196 346.392 111.35 346.908 110.452 347.321C101.634 351.373 91.2172 348.721 85.3769 341.049C84.724 340.191 84.2113 339.193 83.6735 338.26L72.8241 319.391C72.3837 318.625 71.8878 317.499 71.2223 316.925L17.3649 267.446L83.853 229.162ZM106.354 335.475C110.676 332.518 111.056 328.114 108.642 323.89L101.787 311.974C98.1912 305.697 105.552 299.04 111.282 303.634L111.565 303.868C112.086 304.302 112.402 304.89 112.737 305.468L119.941 318.002C120.238 318.516 120.549 319.132 120.955 319.563C124.389 323.211 130.263 323.18 133.536 319.3C136.683 315.566 135.125 311.975 133.089 308.439L122.1 289.35C121.64 288.554 121.049 287.715 120.898 286.793L117.829 273.118L114.561 256.606L108.638 230.189C108.562 229.89 108.415 229.596 108.411 229.287L92.6295 238.34L92.8526 253.522L93.8441 283.264C93.8663 283.948 93.9326 284.658 93.7541 285.326C92.575 284.937 91.4985 284.164 90.4384 283.526L55.5251 261.222C55.1329 260.968 54.7471 260.551 54.3333 260.377L37.8722 269.99C38.133 270.127 38.3684 270.442 38.5929 270.64L64.3868 294.204L80.4918 308.544C81.7747 309.678 82.083 310.281 82.9353 311.76L94.3748 331.645C95.0186 332.764 95.589 333.765 96.5015 334.694C99.114 337.353 103.328 337.44 106.354 335.475Z" fill="#83C5BE"/>
<path d="M218.594 284.511C215.283 286.416 185.911 303.387 185.769 303.377C185.778 302.98 185.567 302.511 185.473 302.112L179.569 276.87L171.225 237.262C170.474 233.81 170.356 232.176 168.596 229.131L156.691 208.415C152.362 199.996 155.207 188.982 162.696 183.268C167.558 179.56 174.985 177.953 180.892 179.941C182.409 174.725 184.932 170.807 189.395 167.775C190.25 167.282 191.096 166.766 191.995 166.353C200.813 162.3 211.229 164.953 217.069 172.625C217.723 173.482 218.235 174.481 218.773 175.414L229.622 194.283C230.063 195.048 230.559 196.175 231.224 196.748L285.082 246.228L218.594 284.511ZM196.092 178.198C191.77 181.156 191.391 185.56 193.805 189.784L200.66 201.7C204.255 207.977 196.894 214.634 191.165 210.04L190.882 209.806C190.361 209.372 190.045 208.784 189.71 208.206L182.506 195.672C182.208 195.158 181.897 194.542 181.491 194.111C178.057 190.462 172.184 190.494 168.911 194.374C165.763 198.108 167.321 201.698 169.357 205.235L180.347 224.323C180.807 225.119 181.397 225.958 181.548 226.881L184.618 240.556L187.886 257.068L193.809 283.485C193.885 283.783 194.031 284.078 194.036 284.387L209.817 275.333L209.593 260.151L208.602 230.409C208.58 229.725 208.514 229.016 208.692 228.348C209.872 228.736 210.948 229.51 212.008 230.148L246.921 252.451C247.314 252.706 247.7 253.123 248.114 253.296L264.574 243.684C264.314 243.547 264.079 243.233 263.854 243.034L238.06 219.47L221.954 205.13C220.672 203.996 220.364 203.393 219.511 201.914L208.072 182.028C207.428 180.909 206.857 179.909 205.945 178.98C203.332 176.321 199.118 176.233 196.092 178.198Z" fill="#006D77"/>
<path d="M305.748 101.496C309.058 99.5917 338.431 82.6207 338.573 82.6299C338.563 83.0278 338.775 83.497 338.869 83.8951L344.773 109.138L353.116 148.745C353.867 152.198 353.986 153.832 355.746 156.876L367.65 177.592C371.98 186.012 369.133 197.026 361.645 202.739C356.785 206.447 349.357 208.055 343.449 206.067C341.932 211.282 339.409 215.201 334.947 218.233C334.092 218.726 333.245 219.242 332.347 219.655C323.529 223.707 313.112 221.055 307.271 213.383C306.619 212.526 306.106 211.527 305.568 210.594L294.719 191.725C294.279 190.959 293.783 189.833 293.117 189.259L239.26 139.78L305.748 101.496ZM328.249 207.809C332.571 204.852 332.951 200.448 330.537 196.224L323.682 184.308C320.086 178.031 327.447 171.375 333.177 175.968L333.46 176.202C333.981 176.636 334.297 177.223 334.632 177.801L341.835 190.336C342.133 190.85 342.444 191.466 342.85 191.897C346.284 195.545 352.158 195.514 355.431 191.634C358.578 187.9 357.02 184.31 354.984 180.773L343.995 161.684C343.535 160.889 342.944 160.049 342.793 159.127L339.723 145.452L336.456 128.939L330.533 102.523C330.457 102.224 330.31 101.93 330.306 101.621L314.525 110.674L314.747 125.857L315.739 155.598C315.761 156.282 315.827 156.992 315.649 157.66C314.47 157.271 313.393 156.498 312.334 155.859L277.42 133.556C277.028 133.302 276.642 132.885 276.228 132.711L259.767 142.324C260.028 142.461 260.263 142.776 260.488 142.974L286.282 166.538L302.387 180.878C303.67 182.012 303.978 182.615 304.831 184.094L316.269 203.979C316.913 205.098 317.484 206.099 318.397 207.027C321.009 209.687 325.223 209.774 328.249 207.809Z" fill="#83C5BE"/>
<path d="M440.489 156.845C437.178 158.75 407.806 175.721 407.663 175.712C407.673 175.314 407.462 174.845 407.368 174.446L401.464 149.204L393.12 109.596C392.369 106.144 392.251 104.51 390.491 101.465L378.586 80.7491C374.256 72.3296 377.103 61.3157 384.591 55.6021C389.452 51.8943 396.88 50.2869 402.787 52.2747C404.304 47.0593 406.827 43.141 411.29 40.1087C412.145 39.6157 412.991 39.0998 413.89 38.6866C422.708 34.6343 433.124 37.2869 438.964 44.9587C439.618 45.8159 440.13 46.8145 440.668 47.7476L451.517 66.6168C451.958 67.3822 452.454 68.509 453.119 69.0824L506.977 118.562L440.489 156.845ZM417.987 50.5324C413.665 53.4897 413.286 57.8936 415.7 62.1175L422.555 74.0335C426.15 80.3108 418.79 86.967 413.06 82.3736L412.776 82.1398C412.256 81.7057 411.939 81.1181 411.605 80.5401L404.401 68.0056C404.103 67.4917 403.792 66.8756 403.386 66.4446C399.952 62.7961 394.079 62.8275 390.806 66.7077C387.658 70.4416 389.216 74.0319 391.252 77.5688L402.242 96.6574C402.702 97.453 403.292 98.2924 403.443 99.2149L406.513 112.89L409.781 129.402L415.704 155.819C415.78 156.117 415.926 156.412 415.931 156.721L431.712 147.668L431.489 132.485L430.497 102.743C430.475 102.059 430.409 101.35 430.587 100.682C431.767 101.07 432.843 101.844 433.903 102.482L468.816 124.785C469.208 125.04 469.595 125.457 470.009 125.63L486.469 116.018C486.209 115.881 485.974 115.567 485.749 115.368L459.955 91.8035L443.849 77.464C442.567 76.3304 442.259 75.7266 441.406 74.248L429.967 54.3623C429.323 53.2433 428.752 52.2427 427.841 51.3137C425.227 48.6546 421.013 48.5674 417.987 50.5324Z" fill="#006D77"/>
<path d="M226.953 427.375C223.642 429.28 194.27 446.251 194.128 446.241C194.137 445.844 193.926 445.375 193.833 444.976L187.928 419.734L179.584 380.126C178.833 376.674 178.715 375.04 176.956 371.995L165.05 351.279C160.721 342.86 163.567 331.846 171.056 326.132C175.917 322.424 183.344 320.817 189.251 322.805C190.768 317.59 193.292 313.671 197.754 310.639C198.609 310.145 199.456 309.63 200.354 309.217C209.172 305.164 219.589 307.817 225.429 315.488C226.082 316.346 226.595 317.344 227.132 318.278L237.982 337.147C238.422 337.912 238.919 339.04 239.584 339.613L293.441 389.092L226.953 427.375ZM204.452 321.062C200.13 324.019 199.75 328.424 202.164 332.648L209.019 344.563C212.615 350.841 205.254 357.497 199.524 352.904L199.241 352.67C198.72 352.236 198.404 351.648 198.069 351.07L190.865 338.536C190.568 338.022 190.257 337.406 189.851 336.975C186.417 333.326 180.543 333.358 177.271 337.238C174.123 340.972 175.68 344.562 177.716 348.099L188.706 367.187C189.166 367.983 189.757 368.822 189.908 369.745L192.977 383.42L196.246 399.933L202.168 426.349C202.245 426.647 202.391 426.942 202.395 427.251L218.176 418.198L217.953 403.015L216.961 373.272C216.94 372.589 216.873 371.88 217.052 371.212C218.23 371.6 219.307 372.374 220.367 373.012L255.281 395.315C255.673 395.57 256.059 395.988 256.472 396.161L272.933 386.548C272.673 386.411 272.438 386.097 272.213 385.898L246.419 362.334L230.314 347.994C229.031 346.859 228.723 346.257 227.871 344.778L216.431 324.893C215.787 323.774 215.217 322.773 214.304 321.844C211.692 319.184 207.478 319.097 204.452 321.062Z" fill="#006D77"/>
<path d="M314.107 244.36C317.417 242.456 346.79 225.485 346.933 225.494C346.923 225.892 347.134 226.361 347.228 226.759L353.132 252.002L361.476 291.609C362.226 295.062 362.345 296.696 364.105 299.741L376.01 320.456C380.339 328.876 377.493 339.89 370.004 345.603C365.144 349.311 357.716 350.919 351.809 348.931C350.291 354.146 347.768 358.065 343.306 361.097C342.451 361.59 341.605 362.106 340.706 362.519C331.888 366.571 321.471 363.919 315.631 356.247C314.978 355.39 314.466 354.391 313.928 353.458L303.078 334.589C302.638 333.823 302.141 332.696 301.476 332.123L247.619 282.644L314.107 244.36ZM336.609 350.673C340.931 347.716 341.31 343.312 338.896 339.088L332.041 327.172C328.446 320.895 335.807 314.238 341.536 318.832L341.819 319.066C342.34 319.5 342.656 320.087 342.991 320.665L350.195 333.2C350.493 333.714 350.803 334.33 351.209 334.761C354.643 338.409 360.517 338.378 363.79 334.498C366.937 330.764 365.379 327.174 363.343 323.637L352.354 304.548C351.894 303.753 351.304 302.913 351.152 301.991L348.083 288.316L344.814 271.803L338.892 245.387C338.816 245.088 338.67 244.794 338.665 244.485L322.883 253.538L323.106 268.721L324.099 298.463C324.121 299.146 324.187 299.856 324.009 300.524C322.829 300.136 321.753 299.362 320.693 298.723L285.779 276.42C285.387 276.166 285 275.748 284.587 275.575L268.126 285.188C268.387 285.325 268.622 285.64 268.847 285.838L294.641 309.402L310.746 323.742C312.029 324.876 312.337 325.479 313.19 326.958L324.629 346.843C325.272 347.962 325.843 348.963 326.756 349.891C329.368 352.551 333.582 352.638 336.609 350.673Z" fill="#83C5BE"/>
<path d="M448.848 299.709C445.538 301.614 416.165 318.585 416.022 318.576C416.032 318.178 415.821 317.709 415.727 317.31L409.823 292.068L401.479 252.46C400.729 249.008 400.61 247.374 398.85 244.329L386.945 223.613C382.616 215.194 385.462 204.18 392.951 198.466C397.811 194.758 405.239 193.151 411.146 195.139C412.664 189.923 415.187 186.005 419.649 182.973C420.504 182.48 421.351 181.964 422.249 181.551C431.067 177.498 441.484 180.151 447.324 187.823C447.977 188.68 448.489 189.679 449.027 190.612L459.877 209.481C460.317 210.246 460.814 211.374 461.479 211.946L515.336 261.426L448.848 299.709ZM426.347 193.396C422.025 196.354 421.645 200.758 424.059 204.981L430.914 216.898C434.509 223.175 427.149 229.831 421.419 225.238L421.136 225.004C420.615 224.57 420.299 223.982 419.964 223.404L412.76 210.87C412.462 210.356 412.152 209.74 411.746 209.309C408.312 205.66 402.438 205.692 399.165 209.573C396.018 213.306 397.576 216.896 399.612 220.433L410.601 239.521C411.061 240.317 411.652 241.156 411.803 242.079L414.872 255.754L418.141 272.267L424.063 298.683C424.139 298.981 424.285 299.276 424.29 299.585L440.071 290.532L439.849 275.349L438.856 245.607C438.834 244.923 438.769 244.214 438.946 243.546C440.126 243.933 441.202 244.708 442.262 245.346L477.176 267.649C477.568 267.904 477.955 268.321 478.368 268.494L494.828 258.882C494.568 258.745 494.333 258.431 494.108 258.232L468.314 234.667L452.209 220.328C450.926 219.193 450.618 218.591 449.765 217.112L438.326 197.226C437.683 196.107 437.112 195.107 436.2 194.178C433.587 191.519 429.373 191.431 426.347 193.396Z" fill="#006D77"/>
<path d="M211.519 451.057C214.829 449.153 244.202 432.182 244.344 432.191C244.335 432.589 244.546 433.058 244.64 433.456L250.544 458.699L258.887 498.306C259.638 501.759 259.757 503.392 261.516 506.438L273.422 527.153C277.751 535.573 274.905 546.587 267.416 552.3C262.555 556.008 255.128 557.616 249.221 555.628C247.704 560.843 245.18 564.762 240.718 567.794C239.862 568.287 239.016 568.803 238.118 569.216C229.3 573.268 218.883 570.616 213.043 562.944C212.39 562.086 211.877 561.088 211.34 560.155L200.49 541.286C200.05 540.52 199.553 539.393 198.888 538.82L145.031 489.341L211.519 451.057ZM234.02 557.37C238.342 554.413 238.722 550.009 236.308 545.785L229.453 533.869C225.857 527.592 233.218 520.935 238.948 525.529L239.231 525.763C239.752 526.197 240.068 526.785 240.403 527.363L247.607 539.897C247.904 540.411 248.215 541.027 248.621 541.458C252.055 545.106 257.929 545.075 261.202 541.195C264.349 537.461 262.791 533.87 260.755 530.334L249.766 511.245C249.306 510.449 248.715 509.61 248.564 508.688L245.495 495.012L242.226 478.5L236.304 452.084C236.228 451.785 236.081 451.491 236.077 451.182L220.296 460.235L220.519 475.417L221.511 505.16C221.532 505.843 221.599 506.553 221.42 507.221C220.242 506.833 219.165 506.059 218.104 505.42L183.191 483.117C182.799 482.863 182.413 482.445 181.999 482.272L165.538 491.885C165.799 492.022 166.034 492.336 166.259 492.535L192.053 516.099L208.158 530.439C209.441 531.573 209.749 532.176 210.601 533.655L222.041 553.54C222.685 554.659 223.255 555.66 224.167 556.589C226.78 559.248 230.994 559.335 234.02 557.37Z" fill="#83C5BE"/>
<path d="M346.26 506.406C342.95 508.311 313.577 525.282 313.435 525.272C313.444 524.875 313.233 524.406 313.139 524.007L307.235 498.765L298.891 459.157C298.14 455.705 298.022 454.071 296.262 451.026L284.357 430.31C280.028 421.891 282.873 410.877 290.362 405.163C295.224 401.455 302.651 399.848 308.558 401.836C310.075 396.62 312.599 392.702 317.061 389.67C317.916 389.177 318.762 388.661 319.661 388.248C328.479 384.195 338.895 386.848 344.735 394.52C345.389 395.377 345.901 396.376 346.439 397.309L357.289 416.178C357.729 416.943 358.225 418.071 358.891 418.643L412.748 468.123L346.26 506.406ZM323.758 400.093C319.436 403.051 319.057 407.455 321.471 411.678L328.326 423.595C331.921 429.872 324.56 436.529 318.831 431.935L318.548 431.701C318.027 431.267 317.711 430.679 317.376 430.101L310.172 417.567C309.874 417.053 309.564 416.437 309.158 416.006C305.724 412.357 299.85 412.389 296.577 416.27C293.429 420.003 294.988 423.593 297.024 427.13L308.013 446.218C308.473 447.014 309.063 447.853 309.215 448.776L312.284 462.451L315.552 478.964L321.475 505.38C321.551 505.678 321.697 505.973 321.702 506.282L337.484 497.228L337.26 482.046L336.268 452.304C336.246 451.62 336.18 450.911 336.358 450.243C337.538 450.63 338.614 451.405 339.674 452.043L374.587 474.346C374.98 474.601 375.366 475.018 375.78 475.191L392.24 465.579C391.98 465.442 391.745 465.128 391.52 464.929L365.726 441.364L349.62 427.025C348.338 425.891 348.03 425.288 347.177 423.809L335.738 403.923C335.094 402.804 334.523 401.804 333.611 400.875C330.998 398.216 326.785 398.128 323.758 400.093Z" fill="#006D77"/>
<path d="M433.414 323.391C436.724 321.487 466.097 304.516 466.239 304.525C466.23 304.923 466.441 305.392 466.535 305.79L472.439 331.033L480.782 370.64C481.533 374.093 481.652 375.727 483.412 378.771L495.316 399.487C499.646 407.907 496.799 418.921 489.311 424.634C484.451 428.342 477.023 429.95 471.115 427.962C469.598 433.177 467.075 437.095 462.613 440.128C461.758 440.621 460.911 441.137 460.013 441.55C451.195 445.602 440.778 442.95 434.937 435.278C434.285 434.421 433.772 433.422 433.234 432.489L422.385 413.62C421.945 412.854 421.448 411.727 420.783 411.154L366.926 361.675L433.414 323.391ZM455.915 429.704C460.237 426.747 460.617 422.343 458.203 418.119L451.348 406.203C447.752 399.926 455.113 393.27 460.843 397.863L461.126 398.097C461.647 398.531 461.963 399.118 462.298 399.696L469.501 412.231C469.799 412.745 470.11 413.361 470.516 413.792C473.95 417.44 479.824 417.409 483.097 413.529C486.244 409.795 484.686 406.205 482.65 402.668L471.661 383.579C471.201 382.784 470.61 381.944 470.459 381.022L467.39 367.347L464.121 350.834L458.199 324.418C458.123 324.119 457.976 323.825 457.972 323.516L442.191 332.569L442.413 347.752L443.406 377.494C443.427 378.177 443.493 378.887 443.315 379.555C442.136 379.167 441.059 378.393 440 377.754L405.086 355.451C404.694 355.197 404.307 354.779 403.894 354.606L387.433 364.219C387.694 364.356 387.929 364.671 388.154 364.869L413.948 388.433L430.053 402.773C431.336 403.907 431.644 404.51 432.497 405.988L443.935 425.874C444.579 426.993 445.15 427.994 446.063 428.922C448.675 431.582 452.889 431.669 455.915 429.704Z" fill="#83C5BE"/>
</g>
<defs>
<clipPath id="clip0_4_4">
<rect width="512" height="512" fill="white" transform="translate(0 122.332) rotate(-29.9137)"/>
</clipPath>
</defs>
</svg>
